<mxfile host="app.diagrams.net" modified="2024-06-04T11:43:59.195Z" agent="Mozilla/5.0 (X11; Ubuntu; Linux x86_64; rv:126.0) Gecko/20100101 Firefox/126.0" etag="poHBZLaUOXlvjw3bSGCD" version="24.4.13" type="device">
  <diagram id="C5RBs43oDa-KdzZeNtuy" name="Page-1">
    <mxGraphModel dx="1434" dy="796" grid="1" gridSize="10" guides="1" tooltips="1" connect="1" arrows="1" fold="1" page="1" pageScale="1" pageWidth="827" pageHeight="1169" math="0" shadow="0">
      <root>
        <mxCell id="WIyWlLk6GJQsqaUBKTNV-0" />
        <mxCell id="WIyWlLk6GJQsqaUBKTNV-1" parent="WIyWlLk6GJQsqaUBKTNV-0" />
        <mxCell id="zkfFHV4jXpPFQw0GAbJ--0" value="Pays" style="swimlane;fontStyle=2;align=center;verticalAlign=top;childLayout=stackLayout;horizontal=1;startSize=26;horizontalStack=0;resizeParent=1;resizeLast=0;collapsible=1;marginBottom=0;rounded=0;shadow=0;strokeWidth=1;" parent="WIyWlLk6GJQsqaUBKTNV-1" vertex="1">
          <mxGeometry x="333" y="10" width="160" height="140" as="geometry">
            <mxRectangle x="230" y="140" width="160" height="26" as="alternateBounds" />
          </mxGeometry>
        </mxCell>
        <mxCell id="zkfFHV4jXpPFQw0GAbJ--1" value="- nomP : String" style="text;align=left;verticalAlign=top;spacingLeft=4;spacingRight=4;overflow=hidden;rotatable=0;points=[[0,0.5],[1,0.5]];portConstraint=eastwest;" parent="zkfFHV4jXpPFQw0GAbJ--0" vertex="1">
          <mxGeometry y="26" width="160" height="26" as="geometry" />
        </mxCell>
        <mxCell id="zkfFHV4jXpPFQw0GAbJ--2" value="- scoreTotal : int" style="text;align=left;verticalAlign=top;spacingLeft=4;spacingRight=4;overflow=hidden;rotatable=0;points=[[0,0.5],[1,0.5]];portConstraint=eastwest;rounded=0;shadow=0;html=0;" parent="zkfFHV4jXpPFQw0GAbJ--0" vertex="1">
          <mxGeometry y="52" width="160" height="26" as="geometry" />
        </mxCell>
        <mxCell id="zkfFHV4jXpPFQw0GAbJ--4" value="" style="line;html=1;strokeWidth=1;align=left;verticalAlign=middle;spacingTop=-1;spacingLeft=3;spacingRight=3;rotatable=0;labelPosition=right;points=[];portConstraint=eastwest;" parent="zkfFHV4jXpPFQw0GAbJ--0" vertex="1">
          <mxGeometry y="78" width="160" height="8" as="geometry" />
        </mxCell>
        <mxCell id="zkfFHV4jXpPFQw0GAbJ--5" value="+ Pays(nom : String)&#xa;+ getScoreTotal() : int&#xa;+ toString() : String&#xa;&#xa;" style="text;align=left;verticalAlign=top;spacingLeft=4;spacingRight=4;overflow=hidden;rotatable=0;points=[[0,0.5],[1,0.5]];portConstraint=eastwest;" parent="zkfFHV4jXpPFQw0GAbJ--0" vertex="1">
          <mxGeometry y="86" width="160" height="54" as="geometry" />
        </mxCell>
        <mxCell id="zkfFHV4jXpPFQw0GAbJ--6" value="Athlete" style="swimlane;fontStyle=0;align=center;verticalAlign=top;childLayout=stackLayout;horizontal=1;startSize=26;horizontalStack=0;resizeParent=1;resizeLast=0;collapsible=1;marginBottom=0;rounded=0;shadow=0;strokeWidth=1;" parent="WIyWlLk6GJQsqaUBKTNV-1" vertex="1">
          <mxGeometry x="9" y="330" width="290" height="280" as="geometry">
            <mxRectangle x="130" y="380" width="160" height="26" as="alternateBounds" />
          </mxGeometry>
        </mxCell>
        <mxCell id="zkfFHV4jXpPFQw0GAbJ--7" value="- nom : String&#xa;- prenom : String&#xa;- sexe : char&#xa;- force : int&#xa;- endurance : int&#xa;- agilite : int&#xa;&#xa;" style="text;align=left;verticalAlign=top;spacingLeft=4;spacingRight=4;overflow=hidden;rotatable=0;points=[[0,0.5],[1,0.5]];portConstraint=eastwest;" parent="zkfFHV4jXpPFQw0GAbJ--6" vertex="1">
          <mxGeometry y="26" width="290" height="94" as="geometry" />
        </mxCell>
        <mxCell id="zkfFHV4jXpPFQw0GAbJ--9" value="" style="line;html=1;strokeWidth=1;align=left;verticalAlign=middle;spacingTop=-1;spacingLeft=3;spacingRight=3;rotatable=0;labelPosition=right;points=[];portConstraint=eastwest;" parent="zkfFHV4jXpPFQw0GAbJ--6" vertex="1">
          <mxGeometry y="120" width="290" height="8" as="geometry" />
        </mxCell>
        <mxCell id="zkfFHV4jXpPFQw0GAbJ--11" value="+ Athlete(nom : String, prenom : String, sexe : char, &#xa;               force : int, endurance : int, agilite : int)&#xa;+ Participer(epreuve :EpreuveIndividuelle) : boolean&#xa;+ getNom() : String&#xa;+ getPrenom() : String&#xa;+ getSexe() : char&#xa;+ getForce() : int&#xa;+ getEndurance() : int&#xa;+ getForce() : int&#xa;+ getAgilite() : int&#xa;&#xa;&#xa;&#xa;&#xa;&#xa;" style="text;align=left;verticalAlign=top;spacingLeft=4;spacingRight=4;overflow=hidden;rotatable=0;points=[[0,0.5],[1,0.5]];portConstraint=eastwest;" parent="zkfFHV4jXpPFQw0GAbJ--6" vertex="1">
          <mxGeometry y="128" width="290" height="152" as="geometry" />
        </mxCell>
        <mxCell id="zkfFHV4jXpPFQw0GAbJ--13" value="&lt;Interface&gt;&#xa;Participant&#xa;" style="swimlane;fontStyle=0;align=center;verticalAlign=top;childLayout=stackLayout;horizontal=1;startSize=40;horizontalStack=0;resizeParent=1;resizeLast=0;collapsible=1;marginBottom=0;rounded=0;shadow=0;strokeWidth=1;" parent="WIyWlLk6GJQsqaUBKTNV-1" vertex="1">
          <mxGeometry x="333" y="210" width="160" height="70" as="geometry">
            <mxRectangle x="340" y="380" width="170" height="26" as="alternateBounds" />
          </mxGeometry>
        </mxCell>
        <mxCell id="zkfFHV4jXpPFQw0GAbJ--15" value="" style="line;html=1;strokeWidth=1;align=left;verticalAlign=middle;spacingTop=-1;spacingLeft=3;spacingRight=3;rotatable=0;labelPosition=right;points=[];portConstraint=eastwest;" parent="zkfFHV4jXpPFQw0GAbJ--13" vertex="1">
          <mxGeometry y="40" width="160" height="8" as="geometry" />
        </mxCell>
        <mxCell id="c24FQxwEsqNwWbjkFZL--1" value="" style="endArrow=classic;html=1;rounded=0;" parent="WIyWlLk6GJQsqaUBKTNV-1" edge="1">
          <mxGeometry width="50" height="50" relative="1" as="geometry">
            <mxPoint x="413" y="210" as="sourcePoint" />
            <mxPoint x="413" y="150" as="targetPoint" />
          </mxGeometry>
        </mxCell>
        <mxCell id="c24FQxwEsqNwWbjkFZL--2" value="" style="endArrow=block;html=1;rounded=0;dashed=1;endFill=1;entryX=0.5;entryY=1;entryDx=0;entryDy=0;" parent="WIyWlLk6GJQsqaUBKTNV-1" target="zkfFHV4jXpPFQw0GAbJ--13" edge="1">
          <mxGeometry width="50" height="50" relative="1" as="geometry">
            <mxPoint x="299" y="342" as="sourcePoint" />
            <mxPoint x="349" y="292" as="targetPoint" />
          </mxGeometry>
        </mxCell>
        <mxCell id="c24FQxwEsqNwWbjkFZL--3" value="" style="endArrow=block;html=1;rounded=0;dashed=1;endFill=1;entryX=0.5;entryY=1;entryDx=0;entryDy=0;exitX=0.286;exitY=0.011;exitDx=0;exitDy=0;exitPerimeter=0;" parent="WIyWlLk6GJQsqaUBKTNV-1" target="zkfFHV4jXpPFQw0GAbJ--13" edge="1" source="c24FQxwEsqNwWbjkFZL--4">
          <mxGeometry width="50" height="50" relative="1" as="geometry">
            <mxPoint x="539" y="340" as="sourcePoint" />
            <mxPoint x="783" y="318" as="targetPoint" />
          </mxGeometry>
        </mxCell>
        <mxCell id="c24FQxwEsqNwWbjkFZL--4" value="Equipe" style="swimlane;fontStyle=0;align=center;verticalAlign=top;childLayout=stackLayout;horizontal=1;startSize=26;horizontalStack=0;resizeParent=1;resizeLast=0;collapsible=1;marginBottom=0;rounded=0;shadow=0;strokeWidth=1;" parent="WIyWlLk6GJQsqaUBKTNV-1" vertex="1">
          <mxGeometry x="459" y="345" width="360" height="190" as="geometry">
            <mxRectangle x="130" y="380" width="160" height="26" as="alternateBounds" />
          </mxGeometry>
        </mxCell>
        <mxCell id="c24FQxwEsqNwWbjkFZL--5" value="- nomEquipe : String&#xa;- nbAthletes : int&#xa;- nationalite : String&#xa;&#xa;&#xa;" style="text;align=left;verticalAlign=top;spacingLeft=4;spacingRight=4;overflow=hidden;rotatable=0;points=[[0,0.5],[1,0.5]];portConstraint=eastwest;" parent="c24FQxwEsqNwWbjkFZL--4" vertex="1">
          <mxGeometry y="26" width="360" height="54" as="geometry" />
        </mxCell>
        <mxCell id="c24FQxwEsqNwWbjkFZL--6" value="" style="line;html=1;strokeWidth=1;align=left;verticalAlign=middle;spacingTop=-1;spacingLeft=3;spacingRight=3;rotatable=0;labelPosition=right;points=[];portConstraint=eastwest;" parent="c24FQxwEsqNwWbjkFZL--4" vertex="1">
          <mxGeometry y="80" width="360" height="8" as="geometry" />
        </mxCell>
        <mxCell id="c24FQxwEsqNwWbjkFZL--7" value="+ Equipe(nomEquipe : String, nbAthletes : int, &#xa;                nationalite : String)&#xa;+ AjouteAthlete(athlete : Athlete) : void&#xa;+ getPrenom() : String&#xa;+ ParticiperEquipe(epreuveCollective : EpreuveCollective) : void&#xa;&#xa;&#xa;&#xa;&#xa;&#xa;&#xa;" style="text;align=left;verticalAlign=top;spacingLeft=4;spacingRight=4;overflow=hidden;rotatable=0;points=[[0,0.5],[1,0.5]];portConstraint=eastwest;" parent="c24FQxwEsqNwWbjkFZL--4" vertex="1">
          <mxGeometry y="88" width="360" height="92" as="geometry" />
        </mxCell>
        <mxCell id="1lEUYHELuhA4MckAKtJ3-2" value="" style="endArrow=classic;html=1;rounded=0;entryX=0.997;entryY=0.211;entryDx=0;entryDy=0;entryPerimeter=0;" edge="1" parent="WIyWlLk6GJQsqaUBKTNV-1" target="zkfFHV4jXpPFQw0GAbJ--11">
          <mxGeometry width="50" height="50" relative="1" as="geometry">
            <mxPoint x="459" y="490" as="sourcePoint" />
            <mxPoint x="389" y="430" as="targetPoint" />
          </mxGeometry>
        </mxCell>
        <mxCell id="1lEUYHELuhA4MckAKtJ3-3" value="- Athlete" style="text;whiteSpace=wrap;html=1;" vertex="1" parent="WIyWlLk6GJQsqaUBKTNV-1">
          <mxGeometry x="299" y="460" width="60" height="20" as="geometry" />
        </mxCell>
        <mxCell id="1lEUYHELuhA4MckAKtJ3-4" value="- equipeParticipante" style="text;whiteSpace=wrap;html=1;" vertex="1" parent="WIyWlLk6GJQsqaUBKTNV-1">
          <mxGeometry x="349" y="490" width="120" height="30" as="geometry" />
        </mxCell>
        <mxCell id="1lEUYHELuhA4MckAKtJ3-5" value="EpreuveIndividuelle&#xa;" style="swimlane;fontStyle=0;align=center;verticalAlign=top;childLayout=stackLayout;horizontal=1;startSize=30;horizontalStack=0;resizeParent=1;resizeLast=0;collapsible=1;marginBottom=0;rounded=0;shadow=0;strokeWidth=1;" vertex="1" parent="WIyWlLk6GJQsqaUBKTNV-1">
          <mxGeometry x="199" y="660" width="160" height="50" as="geometry">
            <mxRectangle x="340" y="380" width="170" height="26" as="alternateBounds" />
          </mxGeometry>
        </mxCell>
        <mxCell id="1lEUYHELuhA4MckAKtJ3-6" value="" style="line;html=1;strokeWidth=1;align=left;verticalAlign=middle;spacingTop=-1;spacingLeft=3;spacingRight=3;rotatable=0;labelPosition=right;points=[];portConstraint=eastwest;" vertex="1" parent="1lEUYHELuhA4MckAKtJ3-5">
          <mxGeometry y="30" width="160" height="8" as="geometry" />
        </mxCell>
        <mxCell id="1lEUYHELuhA4MckAKtJ3-7" value="EpreuveCollective&#xa;" style="swimlane;fontStyle=0;align=center;verticalAlign=top;childLayout=stackLayout;horizontal=1;startSize=30;horizontalStack=0;resizeParent=1;resizeLast=0;collapsible=1;marginBottom=0;rounded=0;shadow=0;strokeWidth=1;" vertex="1" parent="WIyWlLk6GJQsqaUBKTNV-1">
          <mxGeometry x="439" y="660" width="160" height="50" as="geometry">
            <mxRectangle x="340" y="380" width="170" height="26" as="alternateBounds" />
          </mxGeometry>
        </mxCell>
        <mxCell id="1lEUYHELuhA4MckAKtJ3-8" value="" style="line;html=1;strokeWidth=1;align=left;verticalAlign=middle;spacingTop=-1;spacingLeft=3;spacingRight=3;rotatable=0;labelPosition=right;points=[];portConstraint=eastwest;" vertex="1" parent="1lEUYHELuhA4MckAKtJ3-7">
          <mxGeometry y="30" width="160" height="8" as="geometry" />
        </mxCell>
        <mxCell id="1lEUYHELuhA4MckAKtJ3-11" value="Epreuve" style="swimlane;fontStyle=2;align=center;verticalAlign=top;childLayout=stackLayout;horizontal=1;startSize=26;horizontalStack=0;resizeParent=1;resizeLast=0;collapsible=1;marginBottom=0;rounded=0;shadow=0;strokeWidth=1;" vertex="1" parent="WIyWlLk6GJQsqaUBKTNV-1">
          <mxGeometry x="299" y="750" width="210" height="120" as="geometry">
            <mxRectangle x="230" y="140" width="160" height="26" as="alternateBounds" />
          </mxGeometry>
        </mxCell>
        <mxCell id="1lEUYHELuhA4MckAKtJ3-12" value="- sexe : char" style="text;align=left;verticalAlign=top;spacingLeft=4;spacingRight=4;overflow=hidden;rotatable=0;points=[[0,0.5],[1,0.5]];portConstraint=eastwest;" vertex="1" parent="1lEUYHELuhA4MckAKtJ3-11">
          <mxGeometry y="26" width="210" height="26" as="geometry" />
        </mxCell>
        <mxCell id="1lEUYHELuhA4MckAKtJ3-14" value="" style="line;html=1;strokeWidth=1;align=left;verticalAlign=middle;spacingTop=-1;spacingLeft=3;spacingRight=3;rotatable=0;labelPosition=right;points=[];portConstraint=eastwest;" vertex="1" parent="1lEUYHELuhA4MckAKtJ3-11">
          <mxGeometry y="52" width="210" height="8" as="geometry" />
        </mxCell>
        <mxCell id="1lEUYHELuhA4MckAKtJ3-15" value="+ Epreuve(sport : Sport)&#xa;+ getSport() : Sport&#xa;+ participer(participant : undef) : int&#xa;&#xa;&#xa;" style="text;align=left;verticalAlign=top;spacingLeft=4;spacingRight=4;overflow=hidden;rotatable=0;points=[[0,0.5],[1,0.5]];portConstraint=eastwest;" vertex="1" parent="1lEUYHELuhA4MckAKtJ3-11">
          <mxGeometry y="60" width="210" height="54" as="geometry" />
        </mxCell>
        <mxCell id="1lEUYHELuhA4MckAKtJ3-16" value="" style="endArrow=block;html=1;rounded=0;endFill=0;entryX=0;entryY=0;entryDx=0;entryDy=0;exitX=0.5;exitY=1;exitDx=0;exitDy=0;" edge="1" parent="WIyWlLk6GJQsqaUBKTNV-1" source="1lEUYHELuhA4MckAKtJ3-5" target="1lEUYHELuhA4MckAKtJ3-11">
          <mxGeometry width="50" height="50" relative="1" as="geometry">
            <mxPoint x="443" y="710" as="sourcePoint" />
            <mxPoint x="383" y="750" as="targetPoint" />
          </mxGeometry>
        </mxCell>
        <mxCell id="1lEUYHELuhA4MckAKtJ3-9" value="" style="endArrow=block;html=1;rounded=0;endFill=0;exitX=0.5;exitY=1;exitDx=0;exitDy=0;entryX=1;entryY=0;entryDx=0;entryDy=0;" edge="1" parent="WIyWlLk6GJQsqaUBKTNV-1" source="1lEUYHELuhA4MckAKtJ3-7" target="1lEUYHELuhA4MckAKtJ3-11">
          <mxGeometry width="50" height="50" relative="1" as="geometry">
            <mxPoint x="579" y="625" as="sourcePoint" />
            <mxPoint x="459" y="750" as="targetPoint" />
          </mxGeometry>
        </mxCell>
        <mxCell id="1lEUYHELuhA4MckAKtJ3-17" value="" style="endArrow=classic;html=1;rounded=0;entryX=0.997;entryY=0.211;entryDx=0;entryDy=0;entryPerimeter=0;exitX=0.5;exitY=0;exitDx=0;exitDy=0;" edge="1" parent="WIyWlLk6GJQsqaUBKTNV-1" source="1lEUYHELuhA4MckAKtJ3-5">
          <mxGeometry width="50" height="50" relative="1" as="geometry">
            <mxPoint x="349" y="610" as="sourcePoint" />
            <mxPoint x="188" y="610" as="targetPoint" />
          </mxGeometry>
        </mxCell>
        <mxCell id="1lEUYHELuhA4MckAKtJ3-18" value="- lesParticipants" style="text;whiteSpace=wrap;html=1;" vertex="1" parent="WIyWlLk6GJQsqaUBKTNV-1">
          <mxGeometry x="109" y="620" width="90" height="30" as="geometry" />
        </mxCell>
        <mxCell id="1lEUYHELuhA4MckAKtJ3-19" value="&lt;font style=&quot;font-size: 24px;&quot;&gt;*&lt;/font&gt;" style="text;whiteSpace=wrap;html=1;" vertex="1" parent="WIyWlLk6GJQsqaUBKTNV-1">
          <mxGeometry x="229" y="610" width="20" height="20" as="geometry" />
        </mxCell>
        <mxCell id="1lEUYHELuhA4MckAKtJ3-20" value="" style="endArrow=classic;html=1;rounded=0;entryX=0.5;entryY=1;entryDx=0;entryDy=0;exitX=0.5;exitY=0;exitDx=0;exitDy=0;" edge="1" parent="WIyWlLk6GJQsqaUBKTNV-1" target="c24FQxwEsqNwWbjkFZL--4">
          <mxGeometry width="50" height="50" relative="1" as="geometry">
            <mxPoint x="520" y="660" as="sourcePoint" />
            <mxPoint x="429" y="610" as="targetPoint" />
          </mxGeometry>
        </mxCell>
        <mxCell id="1lEUYHELuhA4MckAKtJ3-21" value="- lesEquipes" style="text;whiteSpace=wrap;html=1;" vertex="1" parent="WIyWlLk6GJQsqaUBKTNV-1">
          <mxGeometry x="639" y="540" width="90" height="30" as="geometry" />
        </mxCell>
        <mxCell id="1lEUYHELuhA4MckAKtJ3-22" value="&lt;font style=&quot;font-size: 24px;&quot;&gt;*&lt;/font&gt;" style="text;whiteSpace=wrap;html=1;" vertex="1" parent="WIyWlLk6GJQsqaUBKTNV-1">
          <mxGeometry x="599" y="540" width="20" height="20" as="geometry" />
        </mxCell>
        <mxCell id="1lEUYHELuhA4MckAKtJ3-27" value="Sport" style="swimlane;fontStyle=0;align=center;verticalAlign=top;childLayout=stackLayout;horizontal=1;startSize=26;horizontalStack=0;resizeParent=1;resizeLast=0;collapsible=1;marginBottom=0;rounded=0;shadow=0;strokeWidth=1;" vertex="1" parent="WIyWlLk6GJQsqaUBKTNV-1">
          <mxGeometry x="20" y="900" width="380" height="220" as="geometry">
            <mxRectangle x="130" y="380" width="160" height="26" as="alternateBounds" />
          </mxGeometry>
        </mxCell>
        <mxCell id="1lEUYHELuhA4MckAKtJ3-28" value="- nomSport : String&#xa;- estCollectif : boolean&#xa;&#xa;&#xa;" style="text;align=left;verticalAlign=top;spacingLeft=4;spacingRight=4;overflow=hidden;rotatable=0;points=[[0,0.5],[1,0.5]];portConstraint=eastwest;" vertex="1" parent="1lEUYHELuhA4MckAKtJ3-27">
          <mxGeometry y="26" width="380" height="54" as="geometry" />
        </mxCell>
        <mxCell id="1lEUYHELuhA4MckAKtJ3-29" value="" style="line;html=1;strokeWidth=1;align=left;verticalAlign=middle;spacingTop=-1;spacingLeft=3;spacingRight=3;rotatable=0;labelPosition=right;points=[];portConstraint=eastwest;" vertex="1" parent="1lEUYHELuhA4MckAKtJ3-27">
          <mxGeometry y="80" width="380" height="8" as="geometry" />
        </mxCell>
        <mxCell id="1lEUYHELuhA4MckAKtJ3-30" value="+ AjouteAthlete(athlete : Athlete, epreuve : EpreuveIndivuelle) : void&#xa;+ getPaysVainqueur() : Pays&#xa;+ getPrenom() : String&#xa;+ getAthlete() : Athlete&#xa;+ classement() : void&#xa;+ AjouteEquipe(equipe : Equipe, epreuve : EpreuveCollective ): void&#xa;+ getVainqueur() : Athlete&#xa;+ SimuMatch() : void&#xa;&#xa;&#xa;&#xa;&#xa;&#xa;&#xa;&#xa;" style="text;align=left;verticalAlign=top;spacingLeft=4;spacingRight=4;overflow=hidden;rotatable=0;points=[[0,0.5],[1,0.5]];portConstraint=eastwest;" vertex="1" parent="1lEUYHELuhA4MckAKtJ3-27">
          <mxGeometry y="88" width="380" height="122" as="geometry" />
        </mxCell>
        <mxCell id="1lEUYHELuhA4MckAKtJ3-31" value="JeuxOlympique" style="swimlane;fontStyle=0;align=center;verticalAlign=top;childLayout=stackLayout;horizontal=1;startSize=26;horizontalStack=0;resizeParent=1;resizeLast=0;collapsible=1;marginBottom=0;rounded=0;shadow=0;strokeWidth=1;" vertex="1" parent="WIyWlLk6GJQsqaUBKTNV-1">
          <mxGeometry x="459" y="910" width="360" height="190" as="geometry">
            <mxRectangle x="130" y="380" width="160" height="26" as="alternateBounds" />
          </mxGeometry>
        </mxCell>
        <mxCell id="1lEUYHELuhA4MckAKtJ3-32" value="- annee : int&#xa;- lieu : String&#xa;- nomJO : String&#xa;&#xa;&#xa;" style="text;align=left;verticalAlign=top;spacingLeft=4;spacingRight=4;overflow=hidden;rotatable=0;points=[[0,0.5],[1,0.5]];portConstraint=eastwest;" vertex="1" parent="1lEUYHELuhA4MckAKtJ3-31">
          <mxGeometry y="26" width="360" height="54" as="geometry" />
        </mxCell>
        <mxCell id="1lEUYHELuhA4MckAKtJ3-33" value="" style="line;html=1;strokeWidth=1;align=left;verticalAlign=middle;spacingTop=-1;spacingLeft=3;spacingRight=3;rotatable=0;labelPosition=right;points=[];portConstraint=eastwest;" vertex="1" parent="1lEUYHELuhA4MckAKtJ3-31">
          <mxGeometry y="80" width="360" height="8" as="geometry" />
        </mxCell>
        <mxCell id="1lEUYHELuhA4MckAKtJ3-34" value="+ JeuxOlympique()&#xa;+ AjouteEpreuve(epreuve : Epreuve) : void&#xa;+ VainqueurEpreuve(epreuve : Epreuve) : void&#xa;+ VainqueurJeuxOlympique() : Pays&#xa;+ getScore(pays : Pays) : int &#xa;+LancerLesJeux() : void&#xa;&#xa;&#xa;&#xa;&#xa;&#xa;&#xa;&#xa;&#xa;" style="text;align=left;verticalAlign=top;spacingLeft=4;spacingRight=4;overflow=hidden;rotatable=0;points=[[0,0.5],[1,0.5]];portConstraint=eastwest;" vertex="1" parent="1lEUYHELuhA4MckAKtJ3-31">
          <mxGeometry y="88" width="360" height="102" as="geometry" />
        </mxCell>
        <mxCell id="1lEUYHELuhA4MckAKtJ3-36" value="- lesEpreuves" style="text;whiteSpace=wrap;html=1;" vertex="1" parent="WIyWlLk6GJQsqaUBKTNV-1">
          <mxGeometry x="520" y="840" width="90" height="30" as="geometry" />
        </mxCell>
        <mxCell id="1lEUYHELuhA4MckAKtJ3-37" value="" style="endArrow=classic;html=1;rounded=0;entryX=1;entryY=1;entryDx=0;entryDy=0;exitX=0.5;exitY=0;exitDx=0;exitDy=0;" edge="1" parent="WIyWlLk6GJQsqaUBKTNV-1" target="1lEUYHELuhA4MckAKtJ3-11">
          <mxGeometry width="50" height="50" relative="1" as="geometry">
            <mxPoint x="639" y="910" as="sourcePoint" />
            <mxPoint x="758" y="785" as="targetPoint" />
          </mxGeometry>
        </mxCell>
        <mxCell id="1lEUYHELuhA4MckAKtJ3-38" value="&lt;font style=&quot;font-size: 24px;&quot;&gt;*&lt;/font&gt;" style="text;whiteSpace=wrap;html=1;" vertex="1" parent="WIyWlLk6GJQsqaUBKTNV-1">
          <mxGeometry x="500" y="870" width="20" height="20" as="geometry" />
        </mxCell>
        <mxCell id="1lEUYHELuhA4MckAKtJ3-39" value="" style="endArrow=classic;html=1;rounded=0;entryX=0.5;entryY=0;entryDx=0;entryDy=0;exitX=0;exitY=1;exitDx=0;exitDy=0;" edge="1" parent="WIyWlLk6GJQsqaUBKTNV-1" source="1lEUYHELuhA4MckAKtJ3-11" target="1lEUYHELuhA4MckAKtJ3-27">
          <mxGeometry width="50" height="50" relative="1" as="geometry">
            <mxPoint x="260" y="870" as="sourcePoint" />
            <mxPoint x="130" y="830" as="targetPoint" />
          </mxGeometry>
        </mxCell>
        <mxCell id="1lEUYHELuhA4MckAKtJ3-40" value="- sport" style="text;whiteSpace=wrap;html=1;" vertex="1" parent="WIyWlLk6GJQsqaUBKTNV-1">
          <mxGeometry x="189" y="860" width="40" height="30" as="geometry" />
        </mxCell>
        <mxCell id="1lEUYHELuhA4MckAKtJ3-41" value="1" style="text;whiteSpace=wrap;html=1;" vertex="1" parent="WIyWlLk6GJQsqaUBKTNV-1">
          <mxGeometry x="260" y="880" width="20" height="20" as="geometry" />
        </mxCell>
      </root>
    </mxGraphModel>
  </diagram>
</mxfile>
